solid CATIA STL
  facet normal  1.000000e+000  0.000000e+000  -0.000000e+000
    outer loop
      vertex  1.000000e+001  9.127126e+001  2.173674e+001
      vertex  1.000000e+001  1.001911e+002  1.974895e+001
      vertex  1.000000e+001  1.016053e+002  2.033474e+001
    endloop
  endfacet
  facet normal  1.000000e+000  -0.000000e+000  0.000000e+000
    outer loop
      vertex  1.000000e+001  1.126117e+002  2.533474e+001
      vertex  1.000000e+001 -5.238827e+001  2.533474e+001
      vertex  1.000000e+001  9.127126e+001  2.173674e+001
    endloop
  endfacet
  facet normal  1.000000e+000  -0.000000e+000  0.000000e+000
    outer loop
      vertex  1.000000e+001  1.126117e+002  2.533474e+001
      vertex  1.000000e+001  9.127126e+001  2.173674e+001
      vertex  1.000000e+001  1.016053e+002  2.033474e+001
    endloop
  endfacet
  facet normal  1.000000e+000  -0.000000e+000  0.000000e+000
    outer loop
      vertex  1.000000e+001  1.126117e+002  2.533474e+001
      vertex  1.000000e+001  1.016053e+002  2.033474e+001
      vertex  1.000000e+001  1.030195e+002  1.974895e+001
    endloop
  endfacet
  facet normal  1.000000e+000  -0.000000e+000  0.000000e+000
    outer loop
      vertex  1.000000e+001  1.126117e+002  2.533474e+001
      vertex  1.000000e+001  1.030195e+002  1.974895e+001
      vertex  1.000000e+001  1.126117e+002  1.033474e+001
    endloop
  endfacet
  facet normal  1.000000e+000  0.000000e+000  0.000000e+000
    outer loop
      vertex  1.000000e+001  1.126117e+002  1.033474e+001
      vertex  1.000000e+001  1.030195e+002  1.974895e+001
      vertex  1.000000e+001  1.036053e+002  1.833474e+001
    endloop
  endfacet
  facet normal  1.000000e+000  0.000000e+000  0.000000e+000
    outer loop
      vertex  1.000000e+001  1.126117e+002  1.033474e+001
      vertex  1.000000e+001  1.036053e+002  1.833474e+001
      vertex  1.000000e+001  1.030195e+002  1.692053e+001
    endloop
  endfacet
  facet normal  1.000000e+000  0.000000e+000  0.000000e+000
    outer loop
      vertex  1.000000e+001  1.126117e+002  1.033474e+001
      vertex  1.000000e+001  1.030195e+002  1.692053e+001
      vertex  1.000000e+001  1.016053e+002  1.633474e+001
    endloop
  endfacet
  facet normal  1.000000e+000  0.000000e+000  0.000000e+000
    outer loop
      vertex  1.000000e+001  1.126117e+002  1.033474e+001
      vertex  1.000000e+001  1.016053e+002  1.633474e+001
      vertex  1.000000e+001  9.127126e+001  1.437779e+001
    endloop
  endfacet
  facet normal  1.000000e+000  0.000000e+000  0.000000e+000
    outer loop
      vertex  1.000000e+001  1.126117e+002  1.033474e+001
      vertex  1.000000e+001  9.127126e+001  1.437779e+001
      vertex  1.000000e+001 -5.238827e+001  1.033474e+001
    endloop
  endfacet
  facet normal  1.000000e+000  0.000000e+000  0.000000e+000
    outer loop
      vertex  1.000000e+001 -5.238827e+001  1.033474e+001
      vertex  1.000000e+001  9.127126e+001  1.437779e+001
      vertex  1.000000e+001  4.133177e+001  1.437779e+001
    endloop
  endfacet
  facet normal  1.000000e+000  0.000000e+000  0.000000e+000
    outer loop
      vertex  1.000000e+001 -5.238827e+001  1.033474e+001
      vertex  1.000000e+001  4.133177e+001  1.437779e+001
      vertex  1.000000e+001  3.321835e+001  1.437779e+001
    endloop
  endfacet
  facet normal  1.000000e+000  0.000000e+000  0.000000e+000
    outer loop
      vertex  1.000000e+001 -5.238827e+001  1.033474e+001
      vertex  1.000000e+001  3.321835e+001  1.437779e+001
      vertex  1.000000e+001 -1.853966e+001  1.437779e+001
    endloop
  endfacet
  facet normal  1.000000e+000  0.000000e+000  0.000000e+000
    outer loop
      vertex  1.000000e+001 -5.238827e+001  1.033474e+001
      vertex  1.000000e+001 -1.853966e+001  1.437779e+001
      vertex  1.000000e+001 -4.339467e+001  1.633474e+001
    endloop
  endfacet
  facet normal  1.000000e+000  0.000000e+000  0.000000e+000
    outer loop
      vertex  1.000000e+001 -5.238827e+001  1.033474e+001
      vertex  1.000000e+001 -4.339467e+001  1.633474e+001
      vertex  1.000000e+001 -4.480888e+001  1.692053e+001
    endloop
  endfacet
  facet normal  1.000000e+000  0.000000e+000  0.000000e+000
    outer loop
      vertex  1.000000e+001 -5.238827e+001  1.033474e+001
      vertex  1.000000e+001 -4.480888e+001  1.692053e+001
      vertex  1.000000e+001 -4.539467e+001  1.833474e+001
    endloop
  endfacet
  facet normal  9.999999e-001  0.000000e+000  -0.000000e+000
    outer loop
      vertex  1.000000e+001 -5.238827e+001  1.033474e+001
      vertex  1.000000e+001 -4.539467e+001  1.833474e+001
      vertex  1.000000e+001 -4.480888e+001  1.974895e+001
    endloop
  endfacet
  facet normal  1.000000e+000  0.000000e+000  0.000000e+000
    outer loop
      vertex  1.000000e+001 -5.238827e+001  1.033474e+001
      vertex  1.000000e+001 -4.480888e+001  1.974895e+001
      vertex  1.000000e+001 -5.238827e+001  2.533474e+001
    endloop
  endfacet
  facet normal  1.000000e+000  0.000000e+000  -0.000000e+000
    outer loop
      vertex  1.000000e+001 -5.238827e+001  2.533474e+001
      vertex  1.000000e+001 -4.480888e+001  1.974895e+001
      vertex  1.000000e+001 -4.339467e+001  2.033474e+001
    endloop
  endfacet
  facet normal  1.000000e+000  0.000000e+000  -0.000000e+000
    outer loop
      vertex  1.000000e+001 -5.238827e+001  2.533474e+001
      vertex  1.000000e+001 -4.339467e+001  2.033474e+001
      vertex  1.000000e+001 -1.853966e+001  2.173674e+001
    endloop
  endfacet
  facet normal  9.999999e-001  0.000000e+000  -0.000000e+000
    outer loop
      vertex  1.000000e+001 -5.238827e+001  2.533474e+001
      vertex  1.000000e+001 -1.853966e+001  2.173674e+001
      vertex  1.000000e+001  3.321835e+001  2.173674e+001
    endloop
  endfacet
  facet normal  1.000000e+000  0.000000e+000  -0.000000e+000
    outer loop
      vertex  1.000000e+001 -5.238827e+001  2.533474e+001
      vertex  1.000000e+001  3.321835e+001  2.173674e+001
      vertex  1.000000e+001  4.133177e+001  2.173674e+001
    endloop
  endfacet
  facet normal  1.000000e+000  0.000000e+000  -0.000000e+000
    outer loop
      vertex  1.000000e+001 -5.238827e+001  2.533474e+001
      vertex  1.000000e+001  4.133177e+001  2.173674e+001
      vertex  1.000000e+001  9.127126e+001  2.173674e+001
    endloop
  endfacet
  facet normal  1.000000e+000  0.000000e+000  0.000000e+000
    outer loop
      vertex  1.000000e+001 -1.853966e+001  1.437779e+001
      vertex  1.000000e+001 -1.853966e+001  2.173674e+001
      vertex  1.000000e+001 -4.339467e+001  2.033474e+001
    endloop
  endfacet
  facet normal  1.000000e+000  0.000000e+000  0.000000e+000
    outer loop
      vertex  1.000000e+001 -1.853966e+001  1.437779e+001
      vertex  1.000000e+001 -4.339467e+001  2.033474e+001
      vertex  1.000000e+001 -4.198045e+001  1.974895e+001
    endloop
  endfacet
  facet normal  1.000000e+000  0.000000e+000  0.000000e+000
    outer loop
      vertex  1.000000e+001 -1.853966e+001  1.437779e+001
      vertex  1.000000e+001 -4.198045e+001  1.974895e+001
      vertex  1.000000e+001 -4.139467e+001  1.833474e+001
    endloop
  endfacet
  facet normal  1.000000e+000  0.000000e+000  0.000000e+000
    outer loop
      vertex  1.000000e+001 -1.853966e+001  1.437779e+001
      vertex  1.000000e+001 -4.139467e+001  1.833474e+001
      vertex  1.000000e+001 -4.198045e+001  1.692053e+001
    endloop
  endfacet
  facet normal  1.000000e+000  0.000000e+000  0.000000e+000
    outer loop
      vertex  1.000000e+001 -1.853966e+001  1.437779e+001
      vertex  1.000000e+001 -4.198045e+001  1.692053e+001
      vertex  1.000000e+001 -4.339467e+001  1.633474e+001
    endloop
  endfacet
  facet normal  1.000000e+000  0.000000e+000  0.000000e+000
    outer loop
      vertex  1.000000e+001  9.127126e+001  1.437779e+001
      vertex  1.000000e+001  1.016053e+002  1.633474e+001
      vertex  1.000000e+001  1.001911e+002  1.692053e+001
    endloop
  endfacet
  facet normal  1.000000e+000  0.000000e+000  0.000000e+000
    outer loop
      vertex  1.000000e+001  9.127126e+001  1.437779e+001
      vertex  1.000000e+001  1.001911e+002  1.692053e+001
      vertex  1.000000e+001  9.960533e+001  1.833474e+001
    endloop
  endfacet
  facet normal  1.000000e+000  0.000000e+000  -0.000000e+000
    outer loop
      vertex  1.000000e+001  9.127126e+001  1.437779e+001
      vertex  1.000000e+001  9.960533e+001  1.833474e+001
      vertex  1.000000e+001  1.001911e+002  1.974895e+001
    endloop
  endfacet
  facet normal  1.000000e+000  0.000000e+000  0.000000e+000
    outer loop
      vertex  1.000000e+001  9.127126e+001  1.437779e+001
      vertex  1.000000e+001  1.001911e+002  1.974895e+001
      vertex  1.000000e+001  9.127126e+001  2.173674e+001
    endloop
  endfacet
  facet normal  1.000000e+000  0.000000e+000  0.000000e+000
    outer loop
      vertex  1.000000e+001  3.321835e+001  1.437779e+001
      vertex  1.000000e+001  4.133177e+001  1.437779e+001
      vertex  1.000000e+001  3.321835e+001  2.173674e+001
    endloop
  endfacet
  facet normal  1.000000e+000  -0.000000e+000  0.000000e+000
    outer loop
      vertex  1.000000e+001  3.321835e+001  2.173674e+001
      vertex  1.000000e+001  4.133177e+001  1.437779e+001
      vertex  1.000000e+001  4.133177e+001  2.173674e+001
    endloop
  endfacet
  facet normal -1.000000e+000  0.000000e+000  0.000000e+000
    outer loop
      vertex  0.000000e+000  1.016053e+002  2.033474e+001
      vertex  0.000000e+000  1.001911e+002  1.974895e+001
      vertex  0.000000e+000  9.127126e+001  2.173674e+001
    endloop
  endfacet
  facet normal -1.000000e+000  0.000000e+000  0.000000e+000
    outer loop
      vertex  0.000000e+000  1.126117e+002  2.533474e+001
      vertex  0.000000e+000  1.126117e+002  1.033474e+001
      vertex  0.000000e+000  1.030195e+002  1.974895e+001
    endloop
  endfacet
  facet normal -1.000000e+000  0.000000e+000  0.000000e+000
    outer loop
      vertex  0.000000e+000  1.126117e+002  2.533474e+001
      vertex  0.000000e+000  1.030195e+002  1.974895e+001
      vertex  0.000000e+000  1.016053e+002  2.033474e+001
    endloop
  endfacet
  facet normal -1.000000e+000  0.000000e+000  0.000000e+000
    outer loop
      vertex  0.000000e+000  1.126117e+002  2.533474e+001
      vertex  0.000000e+000  1.016053e+002  2.033474e+001
      vertex  0.000000e+000  9.127126e+001  2.173674e+001
    endloop
  endfacet
  facet normal -1.000000e+000  0.000000e+000  0.000000e+000
    outer loop
      vertex  0.000000e+000  1.126117e+002  2.533474e+001
      vertex  0.000000e+000  9.127126e+001  2.173674e+001
      vertex  0.000000e+000 -5.238827e+001  2.533474e+001
    endloop
  endfacet
  facet normal -1.000000e+000  0.000000e+000  0.000000e+000
    outer loop
      vertex  0.000000e+000  1.126117e+002  1.033474e+001
      vertex  0.000000e+000 -5.238827e+001  1.033474e+001
      vertex  0.000000e+000  9.127126e+001  1.437779e+001
    endloop
  endfacet
  facet normal -1.000000e+000  0.000000e+000  0.000000e+000
    outer loop
      vertex  0.000000e+000  1.126117e+002  1.033474e+001
      vertex  0.000000e+000  9.127126e+001  1.437779e+001
      vertex  0.000000e+000  1.016053e+002  1.633474e+001
    endloop
  endfacet
  facet normal -1.000000e+000  0.000000e+000  0.000000e+000
    outer loop
      vertex  0.000000e+000  1.126117e+002  1.033474e+001
      vertex  0.000000e+000  1.016053e+002  1.633474e+001
      vertex  0.000000e+000  1.030195e+002  1.692053e+001
    endloop
  endfacet
  facet normal -1.000000e+000  0.000000e+000  0.000000e+000
    outer loop
      vertex  0.000000e+000  1.126117e+002  1.033474e+001
      vertex  0.000000e+000  1.030195e+002  1.692053e+001
      vertex  0.000000e+000  1.036053e+002  1.833474e+001
    endloop
  endfacet
  facet normal -1.000000e+000  0.000000e+000  0.000000e+000
    outer loop
      vertex  0.000000e+000  1.126117e+002  1.033474e+001
      vertex  0.000000e+000  1.036053e+002  1.833474e+001
      vertex  0.000000e+000  1.030195e+002  1.974895e+001
    endloop
  endfacet
  facet normal -1.000000e+000  0.000000e+000  0.000000e+000
    outer loop
      vertex  0.000000e+000 -5.238827e+001  1.033474e+001
      vertex  0.000000e+000 -5.238827e+001  2.533474e+001
      vertex  0.000000e+000 -4.480888e+001  1.974895e+001
    endloop
  endfacet
  facet normal -9.999999e-001  0.000000e+000  0.000000e+000
    outer loop
      vertex  0.000000e+000 -5.238827e+001  1.033474e+001
      vertex  0.000000e+000 -4.480888e+001  1.974895e+001
      vertex  0.000000e+000 -4.539467e+001  1.833474e+001
    endloop
  endfacet
  facet normal -1.000000e+000  0.000000e+000  -0.000000e+000
    outer loop
      vertex  0.000000e+000 -5.238827e+001  1.033474e+001
      vertex  0.000000e+000 -4.539467e+001  1.833474e+001
      vertex  0.000000e+000 -4.480888e+001  1.692053e+001
    endloop
  endfacet
  facet normal -1.000000e+000  0.000000e+000  -0.000000e+000
    outer loop
      vertex  0.000000e+000 -5.238827e+001  1.033474e+001
      vertex  0.000000e+000 -4.480888e+001  1.692053e+001
      vertex  0.000000e+000 -4.339467e+001  1.633474e+001
    endloop
  endfacet
  facet normal -1.000000e+000  0.000000e+000  -0.000000e+000
    outer loop
      vertex  0.000000e+000 -5.238827e+001  1.033474e+001
      vertex  0.000000e+000 -4.339467e+001  1.633474e+001
      vertex  0.000000e+000 -1.853966e+001  1.437779e+001
    endloop
  endfacet
  facet normal -1.000000e+000  0.000000e+000  -0.000000e+000
    outer loop
      vertex  0.000000e+000 -5.238827e+001  1.033474e+001
      vertex  0.000000e+000 -1.853966e+001  1.437779e+001
      vertex  0.000000e+000  3.321835e+001  1.437779e+001
    endloop
  endfacet
  facet normal -1.000000e+000  0.000000e+000  -0.000000e+000
    outer loop
      vertex  0.000000e+000 -5.238827e+001  1.033474e+001
      vertex  0.000000e+000  3.321835e+001  1.437779e+001
      vertex  0.000000e+000  4.133177e+001  1.437779e+001
    endloop
  endfacet
  facet normal -1.000000e+000  0.000000e+000  -0.000000e+000
    outer loop
      vertex  0.000000e+000 -5.238827e+001  1.033474e+001
      vertex  0.000000e+000  4.133177e+001  1.437779e+001
      vertex  0.000000e+000  9.127126e+001  1.437779e+001
    endloop
  endfacet
  facet normal -1.000000e+000  0.000000e+000  0.000000e+000
    outer loop
      vertex  0.000000e+000 -5.238827e+001  2.533474e+001
      vertex  0.000000e+000  9.127126e+001  2.173674e+001
      vertex  0.000000e+000  4.133177e+001  2.173674e+001
    endloop
  endfacet
  facet normal -1.000000e+000  0.000000e+000  0.000000e+000
    outer loop
      vertex  0.000000e+000 -5.238827e+001  2.533474e+001
      vertex  0.000000e+000  4.133177e+001  2.173674e+001
      vertex  0.000000e+000  3.321835e+001  2.173674e+001
    endloop
  endfacet
  facet normal -9.999999e-001  0.000000e+000  0.000000e+000
    outer loop
      vertex  0.000000e+000 -5.238827e+001  2.533474e+001
      vertex  0.000000e+000  3.321835e+001  2.173674e+001
      vertex  0.000000e+000 -1.853966e+001  2.173674e+001
    endloop
  endfacet
  facet normal -1.000000e+000  -0.000000e+000  0.000000e+000
    outer loop
      vertex  0.000000e+000 -5.238827e+001  2.533474e+001
      vertex  0.000000e+000 -1.853966e+001  2.173674e+001
      vertex  0.000000e+000 -4.339467e+001  2.033474e+001
    endloop
  endfacet
  facet normal -1.000000e+000  -0.000000e+000  0.000000e+000
    outer loop
      vertex  0.000000e+000 -5.238827e+001  2.533474e+001
      vertex  0.000000e+000 -4.339467e+001  2.033474e+001
      vertex  0.000000e+000 -4.480888e+001  1.974895e+001
    endloop
  endfacet
  facet normal -1.000000e+000  0.000000e+000  0.000000e+000
    outer loop
      vertex  0.000000e+000 -1.853966e+001  1.437779e+001
      vertex  0.000000e+000 -4.339467e+001  1.633474e+001
      vertex  0.000000e+000 -4.198045e+001  1.692053e+001
    endloop
  endfacet
  facet normal -1.000000e+000  0.000000e+000  0.000000e+000
    outer loop
      vertex  0.000000e+000 -1.853966e+001  1.437779e+001
      vertex  0.000000e+000 -4.198045e+001  1.692053e+001
      vertex  0.000000e+000 -4.139467e+001  1.833474e+001
    endloop
  endfacet
  facet normal -1.000000e+000  0.000000e+000  0.000000e+000
    outer loop
      vertex  0.000000e+000 -1.853966e+001  1.437779e+001
      vertex  0.000000e+000 -4.139467e+001  1.833474e+001
      vertex  0.000000e+000 -4.198045e+001  1.974895e+001
    endloop
  endfacet
  facet normal -1.000000e+000  0.000000e+000  0.000000e+000
    outer loop
      vertex  0.000000e+000 -1.853966e+001  1.437779e+001
      vertex  0.000000e+000 -4.198045e+001  1.974895e+001
      vertex  0.000000e+000 -4.339467e+001  2.033474e+001
    endloop
  endfacet
  facet normal -1.000000e+000  0.000000e+000  0.000000e+000
    outer loop
      vertex  0.000000e+000 -1.853966e+001  1.437779e+001
      vertex  0.000000e+000 -4.339467e+001  2.033474e+001
      vertex  0.000000e+000 -1.853966e+001  2.173674e+001
    endloop
  endfacet
  facet normal -1.000000e+000  0.000000e+000  0.000000e+000
    outer loop
      vertex  0.000000e+000  9.127126e+001  1.437779e+001
      vertex  0.000000e+000  9.127126e+001  2.173674e+001
      vertex  0.000000e+000  1.001911e+002  1.974895e+001
    endloop
  endfacet
  facet normal -1.000000e+000  0.000000e+000  0.000000e+000
    outer loop
      vertex  0.000000e+000  9.127126e+001  1.437779e+001
      vertex  0.000000e+000  1.001911e+002  1.974895e+001
      vertex  0.000000e+000  9.960533e+001  1.833474e+001
    endloop
  endfacet
  facet normal -1.000000e+000  0.000000e+000  -0.000000e+000
    outer loop
      vertex  0.000000e+000  9.127126e+001  1.437779e+001
      vertex  0.000000e+000  9.960533e+001  1.833474e+001
      vertex  0.000000e+000  1.001911e+002  1.692053e+001
    endloop
  endfacet
  facet normal -1.000000e+000  0.000000e+000  -0.000000e+000
    outer loop
      vertex  0.000000e+000  9.127126e+001  1.437779e+001
      vertex  0.000000e+000  1.001911e+002  1.692053e+001
      vertex  0.000000e+000  1.016053e+002  1.633474e+001
    endloop
  endfacet
  facet normal -1.000000e+000  0.000000e+000  0.000000e+000
    outer loop
      vertex  0.000000e+000  3.321835e+001  1.437779e+001
      vertex  0.000000e+000  3.321835e+001  2.173674e+001
      vertex  0.000000e+000  4.133177e+001  1.437779e+001
    endloop
  endfacet
  facet normal -1.000000e+000  0.000000e+000  0.000000e+000
    outer loop
      vertex  0.000000e+000  4.133177e+001  1.437779e+001
      vertex  0.000000e+000  3.321835e+001  2.173674e+001
      vertex  0.000000e+000  4.133177e+001  2.173674e+001
    endloop
  endfacet
  facet normal  0.000000e+000  1.000000e+000  -0.000000e+000
    outer loop
      vertex  1.000000e+001  4.133177e+001  2.173674e+001
      vertex  1.000000e+001  4.133177e+001  1.437779e+001
      vertex  0.000000e+000  4.133177e+001  2.173674e+001
    endloop
  endfacet
  facet normal  0.000000e+000  1.000000e+000  0.000000e+000
    outer loop
      vertex  0.000000e+000  4.133177e+001  2.173674e+001
      vertex  1.000000e+001  4.133177e+001  1.437779e+001
      vertex  0.000000e+000  4.133177e+001  1.437779e+001
    endloop
  endfacet
  facet normal  0.000000e+000  0.000000e+000  9.999999e-001
    outer loop
      vertex  0.000000e+000  9.127126e+001  1.437779e+001
      vertex  0.000000e+000  4.133177e+001  1.437779e+001
      vertex  1.000000e+001  9.127126e+001  1.437779e+001
    endloop
  endfacet
  facet normal  0.000000e+000  0.000000e+000  9.999999e-001
    outer loop
      vertex  1.000000e+001  9.127126e+001  1.437779e+001
      vertex  0.000000e+000  4.133177e+001  1.437779e+001
      vertex  1.000000e+001  4.133177e+001  1.437779e+001
    endloop
  endfacet
  facet normal  0.000000e+000 -1.000000e+000  -0.000000e+000
    outer loop
      vertex  1.000000e+001  9.127126e+001  1.437779e+001
      vertex  1.000000e+001  9.127126e+001  2.173674e+001
      vertex  0.000000e+000  9.127126e+001  1.437779e+001
    endloop
  endfacet
  facet normal  0.000000e+000 -1.000000e+000  0.000000e+000
    outer loop
      vertex  0.000000e+000  9.127126e+001  1.437779e+001
      vertex  1.000000e+001  9.127126e+001  2.173674e+001
      vertex  0.000000e+000  9.127126e+001  2.173674e+001
    endloop
  endfacet
  facet normal  0.000000e+000  0.000000e+000 -9.999999e-001
    outer loop
      vertex  0.000000e+000  4.133177e+001  2.173674e+001
      vertex  0.000000e+000  9.127126e+001  2.173674e+001
      vertex  1.000000e+001  4.133177e+001  2.173674e+001
    endloop
  endfacet
  facet normal  0.000000e+000  0.000000e+000 -9.999999e-001
    outer loop
      vertex  1.000000e+001  4.133177e+001  2.173674e+001
      vertex  0.000000e+000  9.127126e+001  2.173674e+001
      vertex  1.000000e+001  9.127126e+001  2.173674e+001
    endloop
  endfacet
  facet normal  0.000000e+000  1.000000e+000  -0.000000e+000
    outer loop
      vertex  1.000000e+001 -1.853966e+001  2.173674e+001
      vertex  1.000000e+001 -1.853966e+001  1.437779e+001
      vertex  0.000000e+000 -1.853966e+001  2.173674e+001
    endloop
  endfacet
  facet normal  0.000000e+000  1.000000e+000  0.000000e+000
    outer loop
      vertex  0.000000e+000 -1.853966e+001  2.173674e+001
      vertex  1.000000e+001 -1.853966e+001  1.437779e+001
      vertex  0.000000e+000 -1.853966e+001  1.437779e+001
    endloop
  endfacet
  facet normal  0.000000e+000  0.000000e+000  1.000000e+000
    outer loop
      vertex  0.000000e+000  3.321835e+001  1.437779e+001
      vertex  0.000000e+000 -1.853966e+001  1.437779e+001
      vertex  1.000000e+001  3.321835e+001  1.437779e+001
    endloop
  endfacet
  facet normal  0.000000e+000  0.000000e+000  1.000000e+000
    outer loop
      vertex  1.000000e+001  3.321835e+001  1.437779e+001
      vertex  0.000000e+000 -1.853966e+001  1.437779e+001
      vertex  1.000000e+001 -1.853966e+001  1.437779e+001
    endloop
  endfacet
  facet normal  0.000000e+000 -1.000000e+000  -0.000000e+000
    outer loop
      vertex  1.000000e+001  3.321835e+001  1.437779e+001
      vertex  1.000000e+001  3.321835e+001  2.173674e+001
      vertex  0.000000e+000  3.321835e+001  1.437779e+001
    endloop
  endfacet
  facet normal  0.000000e+000 -1.000000e+000  0.000000e+000
    outer loop
      vertex  0.000000e+000  3.321835e+001  1.437779e+001
      vertex  1.000000e+001  3.321835e+001  2.173674e+001
      vertex  0.000000e+000  3.321835e+001  2.173674e+001
    endloop
  endfacet
  facet normal  0.000000e+000  0.000000e+000 -1.000000e+000
    outer loop
      vertex  0.000000e+000 -1.853966e+001  2.173674e+001
      vertex  0.000000e+000  3.321835e+001  2.173674e+001
      vertex  1.000000e+001 -1.853966e+001  2.173674e+001
    endloop
  endfacet
  facet normal  0.000000e+000  0.000000e+000 -1.000000e+000
    outer loop
      vertex  1.000000e+001 -1.853966e+001  2.173674e+001
      vertex  0.000000e+000  3.321835e+001  2.173674e+001
      vertex  1.000000e+001  3.321835e+001  2.173674e+001
    endloop
  endfacet
  facet normal  0.000000e+000  3.826833e-001 -9.238796e-001
    outer loop
      vertex  0.000000e+000  1.016053e+002  2.033474e+001
      vertex  1.000000e+001  1.001911e+002  1.974895e+001
      vertex  0.000000e+000  1.001911e+002  1.974895e+001
    endloop
  endfacet
  facet normal  0.000000e+000  9.238799e-001 -3.826827e-001
    outer loop
      vertex  0.000000e+000  1.001911e+002  1.974895e+001
      vertex  1.000000e+001  1.001911e+002  1.974895e+001
      vertex  1.000000e+001  9.960533e+001  1.833474e+001
    endloop
  endfacet
  facet normal  0.000000e+000  9.238799e-001 -3.826827e-001
    outer loop
      vertex  0.000000e+000  1.001911e+002  1.974895e+001
      vertex  1.000000e+001  9.960533e+001  1.833474e+001
      vertex  0.000000e+000  9.960533e+001  1.833474e+001
    endloop
  endfacet
  facet normal  0.000000e+000  3.826833e-001 -9.238796e-001
    outer loop
      vertex  1.000000e+001  1.001911e+002  1.974895e+001
      vertex  0.000000e+000  1.016053e+002  2.033474e+001
      vertex  1.000000e+001  1.016053e+002  2.033474e+001
    endloop
  endfacet
  facet normal  -0.000000e+000 -3.826833e-001 -9.238796e-001
    outer loop
      vertex  1.000000e+001  1.016053e+002  2.033474e+001
      vertex  0.000000e+000  1.016053e+002  2.033474e+001
      vertex  0.000000e+000  1.030195e+002  1.974895e+001
    endloop
  endfacet
  facet normal  0.000000e+000 -3.826833e-001 -9.238796e-001
    outer loop
      vertex  1.000000e+001  1.016053e+002  2.033474e+001
      vertex  0.000000e+000  1.030195e+002  1.974895e+001
      vertex  1.000000e+001  1.030195e+002  1.974895e+001
    endloop
  endfacet
  facet normal  -0.000000e+000 -9.238799e-001 -3.826827e-001
    outer loop
      vertex  1.000000e+001  1.030195e+002  1.974895e+001
      vertex  0.000000e+000  1.030195e+002  1.974895e+001
      vertex  0.000000e+000  1.036053e+002  1.833474e+001
    endloop
  endfacet
  facet normal  0.000000e+000 -9.238799e-001 -3.826827e-001
    outer loop
      vertex  1.000000e+001  1.030195e+002  1.974895e+001
      vertex  0.000000e+000  1.036053e+002  1.833474e+001
      vertex  1.000000e+001  1.036053e+002  1.833474e+001
    endloop
  endfacet
  facet normal  0.000000e+000 -3.826833e-001  9.238796e-001
    outer loop
      vertex  0.000000e+000  1.016053e+002  1.633474e+001
      vertex  1.000000e+001  1.030195e+002  1.692053e+001
      vertex  0.000000e+000  1.030195e+002  1.692053e+001
    endloop
  endfacet
  facet normal  0.000000e+000 -9.238799e-001  3.826827e-001
    outer loop
      vertex  0.000000e+000  1.030195e+002  1.692053e+001
      vertex  1.000000e+001  1.030195e+002  1.692053e+001
      vertex  1.000000e+001  1.036053e+002  1.833474e+001
    endloop
  endfacet
  facet normal  0.000000e+000 -9.238799e-001  3.826827e-001
    outer loop
      vertex  0.000000e+000  1.030195e+002  1.692053e+001
      vertex  1.000000e+001  1.036053e+002  1.833474e+001
      vertex  0.000000e+000  1.036053e+002  1.833474e+001
    endloop
  endfacet
  facet normal  0.000000e+000 -3.826833e-001  9.238796e-001
    outer loop
      vertex  1.000000e+001  1.030195e+002  1.692053e+001
      vertex  0.000000e+000  1.016053e+002  1.633474e+001
      vertex  1.000000e+001  1.016053e+002  1.633474e+001
    endloop
  endfacet
  facet normal  0.000000e+000  3.826833e-001  9.238796e-001
    outer loop
      vertex  1.000000e+001  1.016053e+002  1.633474e+001
      vertex  0.000000e+000  1.016053e+002  1.633474e+001
      vertex  0.000000e+000  1.001911e+002  1.692053e+001
    endloop
  endfacet
  facet normal  -0.000000e+000  3.826833e-001  9.238796e-001
    outer loop
      vertex  1.000000e+001  1.016053e+002  1.633474e+001
      vertex  0.000000e+000  1.001911e+002  1.692053e+001
      vertex  1.000000e+001  1.001911e+002  1.692053e+001
    endloop
  endfacet
  facet normal  0.000000e+000  9.238799e-001  3.826827e-001
    outer loop
      vertex  1.000000e+001  1.001911e+002  1.692053e+001
      vertex  0.000000e+000  1.001911e+002  1.692053e+001
      vertex  0.000000e+000  9.960533e+001  1.833474e+001
    endloop
  endfacet
  facet normal  -0.000000e+000  9.238799e-001  3.826827e-001
    outer loop
      vertex  1.000000e+001  1.001911e+002  1.692053e+001
      vertex  0.000000e+000  9.960533e+001  1.833474e+001
      vertex  1.000000e+001  9.960533e+001  1.833474e+001
    endloop
  endfacet
  facet normal  0.000000e+000  3.826842e-001 -9.238792e-001
    outer loop
      vertex  0.000000e+000 -4.339467e+001  2.033474e+001
      vertex  1.000000e+001 -4.480888e+001  1.974895e+001
      vertex  0.000000e+000 -4.480888e+001  1.974895e+001
    endloop
  endfacet
  facet normal  0.000000e+000  9.238790e-001 -3.826848e-001
    outer loop
      vertex  0.000000e+000 -4.480888e+001  1.974895e+001
      vertex  1.000000e+001 -4.480888e+001  1.974895e+001
      vertex  1.000000e+001 -4.539467e+001  1.833474e+001
    endloop
  endfacet
  facet normal  0.000000e+000  9.238790e-001 -3.826848e-001
    outer loop
      vertex  0.000000e+000 -4.480888e+001  1.974895e+001
      vertex  1.000000e+001 -4.539467e+001  1.833474e+001
      vertex  0.000000e+000 -4.539467e+001  1.833474e+001
    endloop
  endfacet
  facet normal  0.000000e+000  3.826842e-001 -9.238792e-001
    outer loop
      vertex  1.000000e+001 -4.480888e+001  1.974895e+001
      vertex  0.000000e+000 -4.339467e+001  2.033474e+001
      vertex  1.000000e+001 -4.339467e+001  2.033474e+001
    endloop
  endfacet
  facet normal  -0.000000e+000 -3.826833e-001 -9.238796e-001
    outer loop
      vertex  1.000000e+001 -4.339467e+001  2.033474e+001
      vertex  0.000000e+000 -4.339467e+001  2.033474e+001
      vertex  0.000000e+000 -4.198045e+001  1.974895e+001
    endloop
  endfacet
  facet normal  0.000000e+000 -3.826833e-001 -9.238796e-001
    outer loop
      vertex  1.000000e+001 -4.339467e+001  2.033474e+001
      vertex  0.000000e+000 -4.198045e+001  1.974895e+001
      vertex  1.000000e+001 -4.198045e+001  1.974895e+001
    endloop
  endfacet
  facet normal  -0.000000e+000 -9.238799e-001 -3.826827e-001
    outer loop
      vertex  1.000000e+001 -4.198045e+001  1.974895e+001
      vertex  0.000000e+000 -4.198045e+001  1.974895e+001
      vertex  0.000000e+000 -4.139467e+001  1.833474e+001
    endloop
  endfacet
  facet normal  0.000000e+000 -9.238799e-001 -3.826827e-001
    outer loop
      vertex  1.000000e+001 -4.198045e+001  1.974895e+001
      vertex  0.000000e+000 -4.139467e+001  1.833474e+001
      vertex  1.000000e+001 -4.139467e+001  1.833474e+001
    endloop
  endfacet
  facet normal  0.000000e+000 -3.826833e-001  9.238796e-001
    outer loop
      vertex  0.000000e+000 -4.339467e+001  1.633474e+001
      vertex  1.000000e+001 -4.198045e+001  1.692053e+001
      vertex  0.000000e+000 -4.198045e+001  1.692053e+001
    endloop
  endfacet
  facet normal  0.000000e+000 -9.238799e-001  3.826827e-001
    outer loop
      vertex  0.000000e+000 -4.198045e+001  1.692053e+001
      vertex  1.000000e+001 -4.198045e+001  1.692053e+001
      vertex  1.000000e+001 -4.139467e+001  1.833474e+001
    endloop
  endfacet
  facet normal  0.000000e+000 -9.238799e-001  3.826827e-001
    outer loop
      vertex  0.000000e+000 -4.198045e+001  1.692053e+001
      vertex  1.000000e+001 -4.139467e+001  1.833474e+001
      vertex  0.000000e+000 -4.139467e+001  1.833474e+001
    endloop
  endfacet
  facet normal  0.000000e+000 -3.826833e-001  9.238796e-001
    outer loop
      vertex  1.000000e+001 -4.198045e+001  1.692053e+001
      vertex  0.000000e+000 -4.339467e+001  1.633474e+001
      vertex  1.000000e+001 -4.339467e+001  1.633474e+001
    endloop
  endfacet
  facet normal  0.000000e+000  3.826842e-001  9.238792e-001
    outer loop
      vertex  1.000000e+001 -4.339467e+001  1.633474e+001
      vertex  0.000000e+000 -4.339467e+001  1.633474e+001
      vertex  0.000000e+000 -4.480888e+001  1.692053e+001
    endloop
  endfacet
  facet normal  -0.000000e+000  3.826842e-001  9.238792e-001
    outer loop
      vertex  1.000000e+001 -4.339467e+001  1.633474e+001
      vertex  0.000000e+000 -4.480888e+001  1.692053e+001
      vertex  1.000000e+001 -4.480888e+001  1.692053e+001
    endloop
  endfacet
  facet normal  0.000000e+000  9.238790e-001  3.826848e-001
    outer loop
      vertex  1.000000e+001 -4.480888e+001  1.692053e+001
      vertex  0.000000e+000 -4.480888e+001  1.692053e+001
      vertex  0.000000e+000 -4.539467e+001  1.833474e+001
    endloop
  endfacet
  facet normal  -0.000000e+000  9.238790e-001  3.826848e-001
    outer loop
      vertex  1.000000e+001 -4.480888e+001  1.692053e+001
      vertex  0.000000e+000 -4.539467e+001  1.833474e+001
      vertex  1.000000e+001 -4.539467e+001  1.833474e+001
    endloop
  endfacet
  facet normal  0.000000e+000 -1.000000e+000  0.000000e+000
    outer loop
      vertex  1.000000e+001 -5.238827e+001  2.533474e+001
      vertex  0.000000e+000 -5.238827e+001  2.533474e+001
      vertex  1.000000e+001 -5.238827e+001  1.033474e+001
    endloop
  endfacet
  facet normal  0.000000e+000 -1.000000e+000  0.000000e+000
    outer loop
      vertex  1.000000e+001 -5.238827e+001  1.033474e+001
      vertex  0.000000e+000 -5.238827e+001  2.533474e+001
      vertex  0.000000e+000 -5.238827e+001  1.033474e+001
    endloop
  endfacet
  facet normal  -0.000000e+000  0.000000e+000  1.000000e+000
    outer loop
      vertex  1.000000e+001  1.126117e+002  2.533474e+001
      vertex  0.000000e+000  1.126117e+002  2.533474e+001
      vertex  1.000000e+001 -5.238827e+001  2.533474e+001
    endloop
  endfacet
  facet normal  0.000000e+000  0.000000e+000  1.000000e+000
    outer loop
      vertex  1.000000e+001 -5.238827e+001  2.533474e+001
      vertex  0.000000e+000  1.126117e+002  2.533474e+001
      vertex  0.000000e+000 -5.238827e+001  2.533474e+001
    endloop
  endfacet
  facet normal  0.000000e+000  1.000000e+000  0.000000e+000
    outer loop
      vertex  1.000000e+001  1.126117e+002  1.033474e+001
      vertex  0.000000e+000  1.126117e+002  1.033474e+001
      vertex  1.000000e+001  1.126117e+002  2.533474e+001
    endloop
  endfacet
  facet normal  0.000000e+000  1.000000e+000  0.000000e+000
    outer loop
      vertex  1.000000e+001  1.126117e+002  2.533474e+001
      vertex  0.000000e+000  1.126117e+002  1.033474e+001
      vertex  0.000000e+000  1.126117e+002  2.533474e+001
    endloop
  endfacet
  facet normal  0.000000e+000  0.000000e+000 -1.000000e+000
    outer loop
      vertex  1.000000e+001 -5.238827e+001  1.033474e+001
      vertex  0.000000e+000 -5.238827e+001  1.033474e+001
      vertex  1.000000e+001  1.126117e+002  1.033474e+001
    endloop
  endfacet
  facet normal  -0.000000e+000  0.000000e+000 -1.000000e+000
    outer loop
      vertex  1.000000e+001  1.126117e+002  1.033474e+001
      vertex  0.000000e+000 -5.238827e+001  1.033474e+001
      vertex  0.000000e+000  1.126117e+002  1.033474e+001
    endloop
  endfacet
endsolid CATIA STL
