solid CATIA STL
  facet normal  1.000000e+000  0.000000e+000  0.000000e+000
    outer loop
      vertex  1.000000e+001  9.127126e+001  2.173674e+001
      vertex  1.000000e+001  9.127126e+001  1.437779e+001
      vertex  1.000000e+001  9.836926e+001  2.068588e+001
    endloop
  endfacet
  facet normal  1.000000e+000  0.000000e+000  -0.000000e+000
    outer loop
      vertex  1.000000e+001  9.127126e+001  2.173674e+001
      vertex  1.000000e+001  9.836926e+001  2.068588e+001
      vertex  1.000000e+001  1.003693e+002  2.213897e+001
    endloop
  endfacet
  facet normal  9.999999e-001  0.000000e+000  0.000000e+000
    outer loop
      vertex  1.000000e+001  9.127126e+001  2.173674e+001
      vertex  1.000000e+001  1.003693e+002  2.213897e+001
      vertex  1.000000e+001 -5.238827e+001  2.533474e+001
    endloop
  endfacet
  facet normal  1.000000e+000  0.000000e+000  0.000000e+000
    outer loop
      vertex  1.000000e+001  9.127126e+001  2.173674e+001
      vertex  1.000000e+001 -5.238827e+001  2.533474e+001
      vertex  1.000000e+001  4.133177e+001  2.173674e+001
    endloop
  endfacet
  facet normal  9.999999e-001  0.000000e+000  0.000000e+000
    outer loop
      vertex  1.000000e+001 -5.238827e+001  1.033474e+001
      vertex  1.000000e+001  1.126117e+002  1.033474e+001
      vertex  1.000000e+001  1.028414e+002  1.453051e+001
    endloop
  endfacet
  facet normal  9.999999e-001  0.000000e+000  0.000000e+000
    outer loop
      vertex  1.000000e+001 -5.238827e+001  1.033474e+001
      vertex  1.000000e+001  1.028414e+002  1.453051e+001
      vertex  1.000000e+001  1.003693e+002  1.453051e+001
    endloop
  endfacet
  facet normal  1.000000e+000  0.000000e+000  0.000000e+000
    outer loop
      vertex  1.000000e+001 -5.238827e+001  1.033474e+001
      vertex  1.000000e+001  1.003693e+002  1.453051e+001
      vertex  1.000000e+001  9.127126e+001  1.437779e+001
    endloop
  endfacet
  facet normal  1.000000e+000  0.000000e+000  0.000000e+000
    outer loop
      vertex  1.000000e+001 -5.238827e+001  1.033474e+001
      vertex  1.000000e+001  9.127126e+001  1.437779e+001
      vertex  1.000000e+001  4.133177e+001  1.437779e+001
    endloop
  endfacet
  facet normal  1.000000e+000  0.000000e+000  0.000000e+000
    outer loop
      vertex  1.000000e+001 -5.238827e+001  1.033474e+001
      vertex  1.000000e+001  4.133177e+001  1.437779e+001
      vertex  1.000000e+001  3.321835e+001  1.437779e+001
    endloop
  endfacet
  facet normal  1.000000e+000  0.000000e+000  0.000000e+000
    outer loop
      vertex  1.000000e+001 -5.238827e+001  1.033474e+001
      vertex  1.000000e+001  3.321835e+001  1.437779e+001
      vertex  1.000000e+001 -1.853966e+001  1.437779e+001
    endloop
  endfacet
  facet normal  9.999999e-001  0.000000e+000  0.000000e+000
    outer loop
      vertex  1.000000e+001 -5.238827e+001  1.033474e+001
      vertex  1.000000e+001 -1.853966e+001  1.437779e+001
      vertex  1.000000e+001 -4.215860e+001  1.453051e+001
    endloop
  endfacet
  facet normal  9.999999e-001  0.000000e+000  0.000000e+000
    outer loop
      vertex  1.000000e+001 -5.238827e+001  1.033474e+001
      vertex  1.000000e+001 -4.215860e+001  1.453051e+001
      vertex  1.000000e+001 -4.463074e+001  1.453051e+001
    endloop
  endfacet
  facet normal  1.000000e+000  0.000000e+000  0.000000e+000
    outer loop
      vertex  1.000000e+001 -5.238827e+001  1.033474e+001
      vertex  1.000000e+001 -4.463074e+001  1.453051e+001
      vertex  1.000000e+001 -4.663074e+001  1.598360e+001
    endloop
  endfacet
  facet normal  1.000000e+000  0.000000e+000  0.000000e+000
    outer loop
      vertex  1.000000e+001 -5.238827e+001  1.033474e+001
      vertex  1.000000e+001 -4.663074e+001  1.598360e+001
      vertex  1.000000e+001 -4.739467e+001  1.833474e+001
    endloop
  endfacet
  facet normal  1.000000e+000  0.000000e+000  -0.000000e+000
    outer loop
      vertex  1.000000e+001 -5.238827e+001  1.033474e+001
      vertex  1.000000e+001 -4.739467e+001  1.833474e+001
      vertex  1.000000e+001 -4.663074e+001  2.068588e+001
    endloop
  endfacet
  facet normal  9.999999e-001  0.000000e+000  0.000000e+000
    outer loop
      vertex  1.000000e+001 -5.238827e+001  1.033474e+001
      vertex  1.000000e+001 -4.663074e+001  2.068588e+001
      vertex  1.000000e+001 -5.238827e+001  2.533474e+001
    endloop
  endfacet
  facet normal  1.000000e+000  -0.000000e+000  0.000000e+000
    outer loop
      vertex  1.000000e+001  1.126117e+002  2.533474e+001
      vertex  1.000000e+001 -5.238827e+001  2.533474e+001
      vertex  1.000000e+001  1.003693e+002  2.213897e+001
    endloop
  endfacet
  facet normal  9.999999e-001  0.000000e+000  0.000000e+000
    outer loop
      vertex  1.000000e+001  1.126117e+002  2.533474e+001
      vertex  1.000000e+001  1.003693e+002  2.213897e+001
      vertex  1.000000e+001  1.028414e+002  2.213897e+001
    endloop
  endfacet
  facet normal  1.000000e+000  -0.000000e+000  0.000000e+000
    outer loop
      vertex  1.000000e+001  1.126117e+002  2.533474e+001
      vertex  1.000000e+001  1.028414e+002  2.213897e+001
      vertex  1.000000e+001  1.048414e+002  2.068588e+001
    endloop
  endfacet
  facet normal  1.000000e+000  -0.000000e+000  0.000000e+000
    outer loop
      vertex  1.000000e+001  1.126117e+002  2.533474e+001
      vertex  1.000000e+001  1.048414e+002  2.068588e+001
      vertex  1.000000e+001  1.126117e+002  1.033474e+001
    endloop
  endfacet
  facet normal  1.000000e+000  0.000000e+000  -0.000000e+000
    outer loop
      vertex  1.000000e+001 -5.238827e+001  2.533474e+001
      vertex  1.000000e+001 -4.663074e+001  2.068588e+001
      vertex  1.000000e+001 -4.463074e+001  2.213897e+001
    endloop
  endfacet
  facet normal  9.999999e-001  0.000000e+000  -0.000000e+000
    outer loop
      vertex  1.000000e+001 -5.238827e+001  2.533474e+001
      vertex  1.000000e+001 -4.463074e+001  2.213897e+001
      vertex  1.000000e+001 -4.215860e+001  2.213897e+001
    endloop
  endfacet
  facet normal  1.000000e+000  -0.000000e+000  -0.000000e+000
    outer loop
      vertex  1.000000e+001 -5.238827e+001  2.533474e+001
      vertex  1.000000e+001 -4.215860e+001  2.213897e+001
      vertex  1.000000e+001 -1.853966e+001  2.173674e+001
    endloop
  endfacet
  facet normal  9.999999e-001  0.000000e+000  -0.000000e+000
    outer loop
      vertex  1.000000e+001 -5.238827e+001  2.533474e+001
      vertex  1.000000e+001 -1.853966e+001  2.173674e+001
      vertex  1.000000e+001  3.321835e+001  2.173674e+001
    endloop
  endfacet
  facet normal  1.000000e+000  0.000000e+000  -0.000000e+000
    outer loop
      vertex  1.000000e+001 -5.238827e+001  2.533474e+001
      vertex  1.000000e+001  3.321835e+001  2.173674e+001
      vertex  1.000000e+001  4.133177e+001  2.173674e+001
    endloop
  endfacet
  facet normal  1.000000e+000  0.000000e+000  0.000000e+000
    outer loop
      vertex  1.000000e+001 -1.853966e+001  1.437779e+001
      vertex  1.000000e+001 -1.853966e+001  2.173674e+001
      vertex  1.000000e+001 -4.215860e+001  2.213897e+001
    endloop
  endfacet
  facet normal  1.000000e+000  0.000000e+000  0.000000e+000
    outer loop
      vertex  1.000000e+001 -1.853966e+001  1.437779e+001
      vertex  1.000000e+001 -4.215860e+001  2.213897e+001
      vertex  1.000000e+001 -4.015860e+001  2.068588e+001
    endloop
  endfacet
  facet normal  1.000000e+000  0.000000e+000  0.000000e+000
    outer loop
      vertex  1.000000e+001 -1.853966e+001  1.437779e+001
      vertex  1.000000e+001 -4.015860e+001  2.068588e+001
      vertex  1.000000e+001 -3.939467e+001  1.833474e+001
    endloop
  endfacet
  facet normal  9.999999e-001  0.000000e+000  0.000000e+000
    outer loop
      vertex  1.000000e+001 -1.853966e+001  1.437779e+001
      vertex  1.000000e+001 -3.939467e+001  1.833474e+001
      vertex  1.000000e+001 -4.015860e+001  1.598360e+001
    endloop
  endfacet
  facet normal  1.000000e+000  0.000000e+000  0.000000e+000
    outer loop
      vertex  1.000000e+001 -1.853966e+001  1.437779e+001
      vertex  1.000000e+001 -4.015860e+001  1.598360e+001
      vertex  1.000000e+001 -4.215860e+001  1.453051e+001
    endloop
  endfacet
  facet normal  1.000000e+000  0.000000e+000  0.000000e+000
    outer loop
      vertex  1.000000e+001  9.127126e+001  1.437779e+001
      vertex  1.000000e+001  1.003693e+002  1.453051e+001
      vertex  1.000000e+001  9.836926e+001  1.598360e+001
    endloop
  endfacet
  facet normal  1.000000e+000  0.000000e+000  0.000000e+000
    outer loop
      vertex  1.000000e+001  9.127126e+001  1.437779e+001
      vertex  1.000000e+001  9.836926e+001  1.598360e+001
      vertex  1.000000e+001  9.760533e+001  1.833474e+001
    endloop
  endfacet
  facet normal  1.000000e+000  0.000000e+000  -0.000000e+000
    outer loop
      vertex  1.000000e+001  9.127126e+001  1.437779e+001
      vertex  1.000000e+001  9.760533e+001  1.833474e+001
      vertex  1.000000e+001  9.836926e+001  2.068588e+001
    endloop
  endfacet
  facet normal  9.999999e-001  0.000000e+000  0.000000e+000
    outer loop
      vertex  1.000000e+001  1.126117e+002  1.033474e+001
      vertex  1.000000e+001  1.048414e+002  2.068588e+001
      vertex  1.000000e+001  1.056053e+002  1.833474e+001
    endloop
  endfacet
  facet normal  1.000000e+000  0.000000e+000  0.000000e+000
    outer loop
      vertex  1.000000e+001  1.126117e+002  1.033474e+001
      vertex  1.000000e+001  1.056053e+002  1.833474e+001
      vertex  1.000000e+001  1.048414e+002  1.598360e+001
    endloop
  endfacet
  facet normal  1.000000e+000  0.000000e+000  0.000000e+000
    outer loop
      vertex  1.000000e+001  1.126117e+002  1.033474e+001
      vertex  1.000000e+001  1.048414e+002  1.598360e+001
      vertex  1.000000e+001  1.028414e+002  1.453051e+001
    endloop
  endfacet
  facet normal  1.000000e+000  0.000000e+000  0.000000e+000
    outer loop
      vertex  1.000000e+001  3.321835e+001  1.437779e+001
      vertex  1.000000e+001  4.133177e+001  1.437779e+001
      vertex  1.000000e+001  3.321835e+001  2.173674e+001
    endloop
  endfacet
  facet normal  1.000000e+000  -0.000000e+000  0.000000e+000
    outer loop
      vertex  1.000000e+001  3.321835e+001  2.173674e+001
      vertex  1.000000e+001  4.133177e+001  1.437779e+001
      vertex  1.000000e+001  4.133177e+001  2.173674e+001
    endloop
  endfacet
  facet normal -1.000000e+000  0.000000e+000  0.000000e+000
    outer loop
      vertex  0.000000e+000  9.127126e+001  2.173674e+001
      vertex  0.000000e+000  4.133177e+001  2.173674e+001
      vertex  0.000000e+000 -5.238827e+001  2.533474e+001
    endloop
  endfacet
  facet normal -9.999999e-001  0.000000e+000  0.000000e+000
    outer loop
      vertex  0.000000e+000  9.127126e+001  2.173674e+001
      vertex  0.000000e+000 -5.238827e+001  2.533474e+001
      vertex  0.000000e+000  1.003693e+002  2.213897e+001
    endloop
  endfacet
  facet normal -1.000000e+000  0.000000e+000  0.000000e+000
    outer loop
      vertex  0.000000e+000  9.127126e+001  2.173674e+001
      vertex  0.000000e+000  1.003693e+002  2.213897e+001
      vertex  0.000000e+000  9.836926e+001  2.068588e+001
    endloop
  endfacet
  facet normal -1.000000e+000  -0.000000e+000  0.000000e+000
    outer loop
      vertex  0.000000e+000  9.127126e+001  2.173674e+001
      vertex  0.000000e+000  9.836926e+001  2.068588e+001
      vertex  0.000000e+000  9.127126e+001  1.437779e+001
    endloop
  endfacet
  facet normal -9.999999e-001  0.000000e+000  0.000000e+000
    outer loop
      vertex  0.000000e+000 -5.238827e+001  1.033474e+001
      vertex  0.000000e+000 -5.238827e+001  2.533474e+001
      vertex  0.000000e+000 -4.663074e+001  2.068588e+001
    endloop
  endfacet
  facet normal -1.000000e+000  0.000000e+000  0.000000e+000
    outer loop
      vertex  0.000000e+000 -5.238827e+001  1.033474e+001
      vertex  0.000000e+000 -4.663074e+001  2.068588e+001
      vertex  0.000000e+000 -4.739467e+001  1.833474e+001
    endloop
  endfacet
  facet normal -1.000000e+000  0.000000e+000  -0.000000e+000
    outer loop
      vertex  0.000000e+000 -5.238827e+001  1.033474e+001
      vertex  0.000000e+000 -4.739467e+001  1.833474e+001
      vertex  0.000000e+000 -4.663074e+001  1.598360e+001
    endloop
  endfacet
  facet normal -1.000000e+000  0.000000e+000  -0.000000e+000
    outer loop
      vertex  0.000000e+000 -5.238827e+001  1.033474e+001
      vertex  0.000000e+000 -4.663074e+001  1.598360e+001
      vertex  0.000000e+000 -4.463074e+001  1.453051e+001
    endloop
  endfacet
  facet normal -9.999999e-001  0.000000e+000  -0.000000e+000
    outer loop
      vertex  0.000000e+000 -5.238827e+001  1.033474e+001
      vertex  0.000000e+000 -4.463074e+001  1.453051e+001
      vertex  0.000000e+000 -4.215860e+001  1.453051e+001
    endloop
  endfacet
  facet normal -9.999999e-001  0.000000e+000  -0.000000e+000
    outer loop
      vertex  0.000000e+000 -5.238827e+001  1.033474e+001
      vertex  0.000000e+000 -4.215860e+001  1.453051e+001
      vertex  0.000000e+000 -1.853966e+001  1.437779e+001
    endloop
  endfacet
  facet normal -1.000000e+000  0.000000e+000  -0.000000e+000
    outer loop
      vertex  0.000000e+000 -5.238827e+001  1.033474e+001
      vertex  0.000000e+000 -1.853966e+001  1.437779e+001
      vertex  0.000000e+000  3.321835e+001  1.437779e+001
    endloop
  endfacet
  facet normal -1.000000e+000  0.000000e+000  -0.000000e+000
    outer loop
      vertex  0.000000e+000 -5.238827e+001  1.033474e+001
      vertex  0.000000e+000  3.321835e+001  1.437779e+001
      vertex  0.000000e+000  4.133177e+001  1.437779e+001
    endloop
  endfacet
  facet normal -1.000000e+000  0.000000e+000  -0.000000e+000
    outer loop
      vertex  0.000000e+000 -5.238827e+001  1.033474e+001
      vertex  0.000000e+000  4.133177e+001  1.437779e+001
      vertex  0.000000e+000  9.127126e+001  1.437779e+001
    endloop
  endfacet
  facet normal -1.000000e+000  0.000000e+000  -0.000000e+000
    outer loop
      vertex  0.000000e+000 -5.238827e+001  1.033474e+001
      vertex  0.000000e+000  9.127126e+001  1.437779e+001
      vertex  0.000000e+000  1.003693e+002  1.453051e+001
    endloop
  endfacet
  facet normal -9.999999e-001  0.000000e+000  -0.000000e+000
    outer loop
      vertex  0.000000e+000 -5.238827e+001  1.033474e+001
      vertex  0.000000e+000  1.003693e+002  1.453051e+001
      vertex  0.000000e+000  1.028414e+002  1.453051e+001
    endloop
  endfacet
  facet normal -1.000000e+000  0.000000e+000  -0.000000e+000
    outer loop
      vertex  0.000000e+000 -5.238827e+001  1.033474e+001
      vertex  0.000000e+000  1.028414e+002  1.453051e+001
      vertex  0.000000e+000  1.126117e+002  1.033474e+001
    endloop
  endfacet
  facet normal -1.000000e+000  0.000000e+000  0.000000e+000
    outer loop
      vertex  0.000000e+000  1.126117e+002  2.533474e+001
      vertex  0.000000e+000  1.126117e+002  1.033474e+001
      vertex  0.000000e+000  1.048414e+002  2.068588e+001
    endloop
  endfacet
  facet normal -1.000000e+000  0.000000e+000  0.000000e+000
    outer loop
      vertex  0.000000e+000  1.126117e+002  2.533474e+001
      vertex  0.000000e+000  1.048414e+002  2.068588e+001
      vertex  0.000000e+000  1.028414e+002  2.213897e+001
    endloop
  endfacet
  facet normal -9.999999e-001  0.000000e+000  0.000000e+000
    outer loop
      vertex  0.000000e+000  1.126117e+002  2.533474e+001
      vertex  0.000000e+000  1.028414e+002  2.213897e+001
      vertex  0.000000e+000  1.003693e+002  2.213897e+001
    endloop
  endfacet
  facet normal -1.000000e+000  0.000000e+000  0.000000e+000
    outer loop
      vertex  0.000000e+000  1.126117e+002  2.533474e+001
      vertex  0.000000e+000  1.003693e+002  2.213897e+001
      vertex  0.000000e+000 -5.238827e+001  2.533474e+001
    endloop
  endfacet
  facet normal -1.000000e+000  0.000000e+000  0.000000e+000
    outer loop
      vertex  0.000000e+000 -5.238827e+001  2.533474e+001
      vertex  0.000000e+000  4.133177e+001  2.173674e+001
      vertex  0.000000e+000  3.321835e+001  2.173674e+001
    endloop
  endfacet
  facet normal -9.999999e-001  0.000000e+000  0.000000e+000
    outer loop
      vertex  0.000000e+000 -5.238827e+001  2.533474e+001
      vertex  0.000000e+000  3.321835e+001  2.173674e+001
      vertex  0.000000e+000 -1.853966e+001  2.173674e+001
    endloop
  endfacet
  facet normal -1.000000e+000  0.000000e+000  0.000000e+000
    outer loop
      vertex  0.000000e+000 -5.238827e+001  2.533474e+001
      vertex  0.000000e+000 -1.853966e+001  2.173674e+001
      vertex  0.000000e+000 -4.215860e+001  2.213897e+001
    endloop
  endfacet
  facet normal -9.999999e-001  0.000000e+000  0.000000e+000
    outer loop
      vertex  0.000000e+000 -5.238827e+001  2.533474e+001
      vertex  0.000000e+000 -4.215860e+001  2.213897e+001
      vertex  0.000000e+000 -4.463074e+001  2.213897e+001
    endloop
  endfacet
  facet normal -1.000000e+000  -0.000000e+000  0.000000e+000
    outer loop
      vertex  0.000000e+000 -5.238827e+001  2.533474e+001
      vertex  0.000000e+000 -4.463074e+001  2.213897e+001
      vertex  0.000000e+000 -4.663074e+001  2.068588e+001
    endloop
  endfacet
  facet normal -1.000000e+000  0.000000e+000  0.000000e+000
    outer loop
      vertex  0.000000e+000 -1.853966e+001  1.437779e+001
      vertex  0.000000e+000 -4.215860e+001  1.453051e+001
      vertex  0.000000e+000 -4.015860e+001  1.598360e+001
    endloop
  endfacet
  facet normal -9.999999e-001  0.000000e+000  0.000000e+000
    outer loop
      vertex  0.000000e+000 -1.853966e+001  1.437779e+001
      vertex  0.000000e+000 -4.015860e+001  1.598360e+001
      vertex  0.000000e+000 -3.939467e+001  1.833474e+001
    endloop
  endfacet
  facet normal -1.000000e+000  0.000000e+000  0.000000e+000
    outer loop
      vertex  0.000000e+000 -1.853966e+001  1.437779e+001
      vertex  0.000000e+000 -3.939467e+001  1.833474e+001
      vertex  0.000000e+000 -4.015860e+001  2.068588e+001
    endloop
  endfacet
  facet normal -1.000000e+000  0.000000e+000  0.000000e+000
    outer loop
      vertex  0.000000e+000 -1.853966e+001  1.437779e+001
      vertex  0.000000e+000 -4.015860e+001  2.068588e+001
      vertex  0.000000e+000 -4.215860e+001  2.213897e+001
    endloop
  endfacet
  facet normal -1.000000e+000  0.000000e+000  0.000000e+000
    outer loop
      vertex  0.000000e+000 -1.853966e+001  1.437779e+001
      vertex  0.000000e+000 -4.215860e+001  2.213897e+001
      vertex  0.000000e+000 -1.853966e+001  2.173674e+001
    endloop
  endfacet
  facet normal -1.000000e+000  0.000000e+000  0.000000e+000
    outer loop
      vertex  0.000000e+000  9.127126e+001  1.437779e+001
      vertex  0.000000e+000  9.836926e+001  2.068588e+001
      vertex  0.000000e+000  9.760533e+001  1.833474e+001
    endloop
  endfacet
  facet normal -1.000000e+000  0.000000e+000  -0.000000e+000
    outer loop
      vertex  0.000000e+000  9.127126e+001  1.437779e+001
      vertex  0.000000e+000  9.760533e+001  1.833474e+001
      vertex  0.000000e+000  9.836926e+001  1.598360e+001
    endloop
  endfacet
  facet normal -1.000000e+000  0.000000e+000  -0.000000e+000
    outer loop
      vertex  0.000000e+000  9.127126e+001  1.437779e+001
      vertex  0.000000e+000  9.836926e+001  1.598360e+001
      vertex  0.000000e+000  1.003693e+002  1.453051e+001
    endloop
  endfacet
  facet normal -1.000000e+000  0.000000e+000  0.000000e+000
    outer loop
      vertex  0.000000e+000  1.126117e+002  1.033474e+001
      vertex  0.000000e+000  1.028414e+002  1.453051e+001
      vertex  0.000000e+000  1.048414e+002  1.598360e+001
    endloop
  endfacet
  facet normal -1.000000e+000  0.000000e+000  0.000000e+000
    outer loop
      vertex  0.000000e+000  1.126117e+002  1.033474e+001
      vertex  0.000000e+000  1.048414e+002  1.598360e+001
      vertex  0.000000e+000  1.056053e+002  1.833474e+001
    endloop
  endfacet
  facet normal -9.999999e-001  0.000000e+000  0.000000e+000
    outer loop
      vertex  0.000000e+000  1.126117e+002  1.033474e+001
      vertex  0.000000e+000  1.056053e+002  1.833474e+001
      vertex  0.000000e+000  1.048414e+002  2.068588e+001
    endloop
  endfacet
  facet normal -1.000000e+000  0.000000e+000  0.000000e+000
    outer loop
      vertex  0.000000e+000  3.321835e+001  1.437779e+001
      vertex  0.000000e+000  3.321835e+001  2.173674e+001
      vertex  0.000000e+000  4.133177e+001  1.437779e+001
    endloop
  endfacet
  facet normal -1.000000e+000  0.000000e+000  0.000000e+000
    outer loop
      vertex  0.000000e+000  4.133177e+001  1.437779e+001
      vertex  0.000000e+000  3.321835e+001  2.173674e+001
      vertex  0.000000e+000  4.133177e+001  2.173674e+001
    endloop
  endfacet
  facet normal  0.000000e+000  1.000000e+000  -0.000000e+000
    outer loop
      vertex  1.000000e+001  4.133177e+001  2.173674e+001
      vertex  1.000000e+001  4.133177e+001  1.437779e+001
      vertex  0.000000e+000  4.133177e+001  2.173674e+001
    endloop
  endfacet
  facet normal  0.000000e+000  1.000000e+000  0.000000e+000
    outer loop
      vertex  0.000000e+000  4.133177e+001  2.173674e+001
      vertex  1.000000e+001  4.133177e+001  1.437779e+001
      vertex  0.000000e+000  4.133177e+001  1.437779e+001
    endloop
  endfacet
  facet normal  0.000000e+000  0.000000e+000  9.999999e-001
    outer loop
      vertex  0.000000e+000  9.127126e+001  1.437779e+001
      vertex  0.000000e+000  4.133177e+001  1.437779e+001
      vertex  1.000000e+001  9.127126e+001  1.437779e+001
    endloop
  endfacet
  facet normal  0.000000e+000  0.000000e+000  9.999999e-001
    outer loop
      vertex  1.000000e+001  9.127126e+001  1.437779e+001
      vertex  0.000000e+000  4.133177e+001  1.437779e+001
      vertex  1.000000e+001  4.133177e+001  1.437779e+001
    endloop
  endfacet
  facet normal  0.000000e+000 -1.000000e+000  -0.000000e+000
    outer loop
      vertex  1.000000e+001  9.127126e+001  1.437779e+001
      vertex  1.000000e+001  9.127126e+001  2.173674e+001
      vertex  0.000000e+000  9.127126e+001  1.437779e+001
    endloop
  endfacet
  facet normal  0.000000e+000 -1.000000e+000  0.000000e+000
    outer loop
      vertex  0.000000e+000  9.127126e+001  1.437779e+001
      vertex  1.000000e+001  9.127126e+001  2.173674e+001
      vertex  0.000000e+000  9.127126e+001  2.173674e+001
    endloop
  endfacet
  facet normal  0.000000e+000  0.000000e+000 -9.999999e-001
    outer loop
      vertex  0.000000e+000  4.133177e+001  2.173674e+001
      vertex  0.000000e+000  9.127126e+001  2.173674e+001
      vertex  1.000000e+001  4.133177e+001  2.173674e+001
    endloop
  endfacet
  facet normal  0.000000e+000  0.000000e+000 -9.999999e-001
    outer loop
      vertex  1.000000e+001  4.133177e+001  2.173674e+001
      vertex  0.000000e+000  9.127126e+001  2.173674e+001
      vertex  1.000000e+001  9.127126e+001  2.173674e+001
    endloop
  endfacet
  facet normal  0.000000e+000  1.000000e+000  -0.000000e+000
    outer loop
      vertex  1.000000e+001 -1.853966e+001  2.173674e+001
      vertex  1.000000e+001 -1.853966e+001  1.437779e+001
      vertex  0.000000e+000 -1.853966e+001  2.173674e+001
    endloop
  endfacet
  facet normal  0.000000e+000  1.000000e+000  0.000000e+000
    outer loop
      vertex  0.000000e+000 -1.853966e+001  2.173674e+001
      vertex  1.000000e+001 -1.853966e+001  1.437779e+001
      vertex  0.000000e+000 -1.853966e+001  1.437779e+001
    endloop
  endfacet
  facet normal  0.000000e+000  0.000000e+000  1.000000e+000
    outer loop
      vertex  0.000000e+000  3.321835e+001  1.437779e+001
      vertex  0.000000e+000 -1.853966e+001  1.437779e+001
      vertex  1.000000e+001  3.321835e+001  1.437779e+001
    endloop
  endfacet
  facet normal  0.000000e+000  0.000000e+000  1.000000e+000
    outer loop
      vertex  1.000000e+001  3.321835e+001  1.437779e+001
      vertex  0.000000e+000 -1.853966e+001  1.437779e+001
      vertex  1.000000e+001 -1.853966e+001  1.437779e+001
    endloop
  endfacet
  facet normal  0.000000e+000 -1.000000e+000  -0.000000e+000
    outer loop
      vertex  1.000000e+001  3.321835e+001  1.437779e+001
      vertex  1.000000e+001  3.321835e+001  2.173674e+001
      vertex  0.000000e+000  3.321835e+001  1.437779e+001
    endloop
  endfacet
  facet normal  0.000000e+000 -1.000000e+000  0.000000e+000
    outer loop
      vertex  0.000000e+000  3.321835e+001  1.437779e+001
      vertex  1.000000e+001  3.321835e+001  2.173674e+001
      vertex  0.000000e+000  3.321835e+001  2.173674e+001
    endloop
  endfacet
  facet normal  0.000000e+000  0.000000e+000 -1.000000e+000
    outer loop
      vertex  0.000000e+000 -1.853966e+001  2.173674e+001
      vertex  0.000000e+000  3.321835e+001  2.173674e+001
      vertex  1.000000e+001 -1.853966e+001  2.173674e+001
    endloop
  endfacet
  facet normal  0.000000e+000  0.000000e+000 -1.000000e+000
    outer loop
      vertex  1.000000e+001 -1.853966e+001  2.173674e+001
      vertex  0.000000e+000  3.321835e+001  2.173674e+001
      vertex  1.000000e+001  3.321835e+001  2.173674e+001
    endloop
  endfacet
  facet normal  0.000000e+000  5.877852e-001 -8.090169e-001
    outer loop
      vertex  0.000000e+000  1.003693e+002  2.213897e+001
      vertex  1.000000e+001  9.836926e+001  2.068588e+001
      vertex  0.000000e+000  9.836926e+001  2.068588e+001
    endloop
  endfacet
  facet normal  0.000000e+000  9.510565e-001 -3.090167e-001
    outer loop
      vertex  0.000000e+000  9.836926e+001  2.068588e+001
      vertex  1.000000e+001  9.836926e+001  2.068588e+001
      vertex  1.000000e+001  9.760533e+001  1.833474e+001
    endloop
  endfacet
  facet normal  0.000000e+000  9.510565e-001 -3.090167e-001
    outer loop
      vertex  0.000000e+000  9.836926e+001  2.068588e+001
      vertex  1.000000e+001  9.760533e+001  1.833474e+001
      vertex  0.000000e+000  9.760533e+001  1.833474e+001
    endloop
  endfacet
  facet normal  0.000000e+000  5.877852e-001 -8.090169e-001
    outer loop
      vertex  1.000000e+001  9.836926e+001  2.068588e+001
      vertex  0.000000e+000  1.003693e+002  2.213897e+001
      vertex  1.000000e+001  1.003693e+002  2.213897e+001
    endloop
  endfacet
  facet normal  0.000000e+000  0.000000e+000 -1.000000e+000
    outer loop
      vertex  1.000000e+001  1.003693e+002  2.213897e+001
      vertex  0.000000e+000  1.003693e+002  2.213897e+001
      vertex  0.000000e+000  1.028414e+002  2.213897e+001
    endloop
  endfacet
  facet normal  0.000000e+000  0.000000e+000 -1.000000e+000
    outer loop
      vertex  1.000000e+001  1.003693e+002  2.213897e+001
      vertex  0.000000e+000  1.028414e+002  2.213897e+001
      vertex  1.000000e+001  1.028414e+002  2.213897e+001
    endloop
  endfacet
  facet normal  -0.000000e+000 -5.877852e-001 -8.090169e-001
    outer loop
      vertex  1.000000e+001  1.028414e+002  2.213897e+001
      vertex  0.000000e+000  1.028414e+002  2.213897e+001
      vertex  0.000000e+000  1.048414e+002  2.068588e+001
    endloop
  endfacet
  facet normal  0.000000e+000 -5.877852e-001 -8.090169e-001
    outer loop
      vertex  1.000000e+001  1.028414e+002  2.213897e+001
      vertex  0.000000e+000  1.048414e+002  2.068588e+001
      vertex  1.000000e+001  1.048414e+002  2.068588e+001
    endloop
  endfacet
  facet normal  -0.000000e+000 -9.510565e-001 -3.090167e-001
    outer loop
      vertex  1.000000e+001  1.048414e+002  2.068588e+001
      vertex  0.000000e+000  1.048414e+002  2.068588e+001
      vertex  0.000000e+000  1.056053e+002  1.833474e+001
    endloop
  endfacet
  facet normal  0.000000e+000 -9.510565e-001 -3.090167e-001
    outer loop
      vertex  1.000000e+001  1.048414e+002  2.068588e+001
      vertex  0.000000e+000  1.056053e+002  1.833474e+001
      vertex  1.000000e+001  1.056053e+002  1.833474e+001
    endloop
  endfacet
  facet normal  0.000000e+000 -5.877855e-001  8.090168e-001
    outer loop
      vertex  0.000000e+000  1.028414e+002  1.453051e+001
      vertex  1.000000e+001  1.048414e+002  1.598360e+001
      vertex  0.000000e+000  1.048414e+002  1.598360e+001
    endloop
  endfacet
  facet normal  0.000000e+000 -9.510565e-001  3.090167e-001
    outer loop
      vertex  0.000000e+000  1.048414e+002  1.598360e+001
      vertex  1.000000e+001  1.048414e+002  1.598360e+001
      vertex  1.000000e+001  1.056053e+002  1.833474e+001
    endloop
  endfacet
  facet normal  0.000000e+000 -9.510565e-001  3.090167e-001
    outer loop
      vertex  0.000000e+000  1.048414e+002  1.598360e+001
      vertex  1.000000e+001  1.056053e+002  1.833474e+001
      vertex  0.000000e+000  1.056053e+002  1.833474e+001
    endloop
  endfacet
  facet normal  0.000000e+000 -5.877855e-001  8.090168e-001
    outer loop
      vertex  1.000000e+001  1.048414e+002  1.598360e+001
      vertex  0.000000e+000  1.028414e+002  1.453051e+001
      vertex  1.000000e+001  1.028414e+002  1.453051e+001
    endloop
  endfacet
  facet normal  0.000000e+000  0.000000e+000  1.000000e+000
    outer loop
      vertex  1.000000e+001  1.028414e+002  1.453051e+001
      vertex  0.000000e+000  1.028414e+002  1.453051e+001
      vertex  0.000000e+000  1.003693e+002  1.453051e+001
    endloop
  endfacet
  facet normal  0.000000e+000  0.000000e+000  1.000000e+000
    outer loop
      vertex  1.000000e+001  1.028414e+002  1.453051e+001
      vertex  0.000000e+000  1.003693e+002  1.453051e+001
      vertex  1.000000e+001  1.003693e+002  1.453051e+001
    endloop
  endfacet
  facet normal  0.000000e+000  5.877855e-001  8.090168e-001
    outer loop
      vertex  1.000000e+001  1.003693e+002  1.453051e+001
      vertex  0.000000e+000  1.003693e+002  1.453051e+001
      vertex  0.000000e+000  9.836926e+001  1.598360e+001
    endloop
  endfacet
  facet normal  -0.000000e+000  5.877855e-001  8.090168e-001
    outer loop
      vertex  1.000000e+001  1.003693e+002  1.453051e+001
      vertex  0.000000e+000  9.836926e+001  1.598360e+001
      vertex  1.000000e+001  9.836926e+001  1.598360e+001
    endloop
  endfacet
  facet normal  0.000000e+000  9.510565e-001  3.090167e-001
    outer loop
      vertex  1.000000e+001  9.836926e+001  1.598360e+001
      vertex  0.000000e+000  9.836926e+001  1.598360e+001
      vertex  0.000000e+000  9.760533e+001  1.833474e+001
    endloop
  endfacet
  facet normal  -0.000000e+000  9.510565e-001  3.090167e-001
    outer loop
      vertex  1.000000e+001  9.836926e+001  1.598360e+001
      vertex  0.000000e+000  9.760533e+001  1.833474e+001
      vertex  1.000000e+001  9.760533e+001  1.833474e+001
    endloop
  endfacet
  facet normal  0.000000e+000  5.877852e-001 -8.090169e-001
    outer loop
      vertex  0.000000e+000 -4.463074e+001  2.213897e+001
      vertex  1.000000e+001 -4.663074e+001  2.068588e+001
      vertex  0.000000e+000 -4.663074e+001  2.068588e+001
    endloop
  endfacet
  facet normal  0.000000e+000  9.510565e-001 -3.090167e-001
    outer loop
      vertex  0.000000e+000 -4.663074e+001  2.068588e+001
      vertex  1.000000e+001 -4.663074e+001  2.068588e+001
      vertex  1.000000e+001 -4.739467e+001  1.833474e+001
    endloop
  endfacet
  facet normal  0.000000e+000  9.510565e-001 -3.090167e-001
    outer loop
      vertex  0.000000e+000 -4.663074e+001  2.068588e+001
      vertex  1.000000e+001 -4.739467e+001  1.833474e+001
      vertex  0.000000e+000 -4.739467e+001  1.833474e+001
    endloop
  endfacet
  facet normal  0.000000e+000  5.877852e-001 -8.090169e-001
    outer loop
      vertex  1.000000e+001 -4.663074e+001  2.068588e+001
      vertex  0.000000e+000 -4.463074e+001  2.213897e+001
      vertex  1.000000e+001 -4.463074e+001  2.213897e+001
    endloop
  endfacet
  facet normal  0.000000e+000  0.000000e+000 -1.000000e+000
    outer loop
      vertex  1.000000e+001 -4.463074e+001  2.213897e+001
      vertex  0.000000e+000 -4.463074e+001  2.213897e+001
      vertex  0.000000e+000 -4.215860e+001  2.213897e+001
    endloop
  endfacet
  facet normal  0.000000e+000  0.000000e+000 -1.000000e+000
    outer loop
      vertex  1.000000e+001 -4.463074e+001  2.213897e+001
      vertex  0.000000e+000 -4.215860e+001  2.213897e+001
      vertex  1.000000e+001 -4.215860e+001  2.213897e+001
    endloop
  endfacet
  facet normal  -0.000000e+000 -5.877852e-001 -8.090169e-001
    outer loop
      vertex  1.000000e+001 -4.215860e+001  2.213897e+001
      vertex  0.000000e+000 -4.215860e+001  2.213897e+001
      vertex  0.000000e+000 -4.015860e+001  2.068588e+001
    endloop
  endfacet
  facet normal  0.000000e+000 -5.877852e-001 -8.090169e-001
    outer loop
      vertex  1.000000e+001 -4.215860e+001  2.213897e+001
      vertex  0.000000e+000 -4.015860e+001  2.068588e+001
      vertex  1.000000e+001 -4.015860e+001  2.068588e+001
    endloop
  endfacet
  facet normal  -0.000000e+000 -9.510565e-001 -3.090167e-001
    outer loop
      vertex  1.000000e+001 -4.015860e+001  2.068588e+001
      vertex  0.000000e+000 -4.015860e+001  2.068588e+001
      vertex  0.000000e+000 -3.939467e+001  1.833474e+001
    endloop
  endfacet
  facet normal  0.000000e+000 -9.510565e-001 -3.090167e-001
    outer loop
      vertex  1.000000e+001 -4.015860e+001  2.068588e+001
      vertex  0.000000e+000 -3.939467e+001  1.833474e+001
      vertex  1.000000e+001 -3.939467e+001  1.833474e+001
    endloop
  endfacet
  facet normal  0.000000e+000 -5.877855e-001  8.090168e-001
    outer loop
      vertex  0.000000e+000 -4.215860e+001  1.453051e+001
      vertex  1.000000e+001 -4.015860e+001  1.598360e+001
      vertex  0.000000e+000 -4.015860e+001  1.598360e+001
    endloop
  endfacet
  facet normal  0.000000e+000 -9.510565e-001  3.090167e-001
    outer loop
      vertex  0.000000e+000 -4.015860e+001  1.598360e+001
      vertex  1.000000e+001 -4.015860e+001  1.598360e+001
      vertex  1.000000e+001 -3.939467e+001  1.833474e+001
    endloop
  endfacet
  facet normal  0.000000e+000 -9.510565e-001  3.090167e-001
    outer loop
      vertex  0.000000e+000 -4.015860e+001  1.598360e+001
      vertex  1.000000e+001 -3.939467e+001  1.833474e+001
      vertex  0.000000e+000 -3.939467e+001  1.833474e+001
    endloop
  endfacet
  facet normal  0.000000e+000 -5.877855e-001  8.090168e-001
    outer loop
      vertex  1.000000e+001 -4.015860e+001  1.598360e+001
      vertex  0.000000e+000 -4.215860e+001  1.453051e+001
      vertex  1.000000e+001 -4.215860e+001  1.453051e+001
    endloop
  endfacet
  facet normal  0.000000e+000  0.000000e+000  1.000000e+000
    outer loop
      vertex  1.000000e+001 -4.215860e+001  1.453051e+001
      vertex  0.000000e+000 -4.215860e+001  1.453051e+001
      vertex  0.000000e+000 -4.463074e+001  1.453051e+001
    endloop
  endfacet
  facet normal  0.000000e+000  0.000000e+000  1.000000e+000
    outer loop
      vertex  1.000000e+001 -4.215860e+001  1.453051e+001
      vertex  0.000000e+000 -4.463074e+001  1.453051e+001
      vertex  1.000000e+001 -4.463074e+001  1.453051e+001
    endloop
  endfacet
  facet normal  0.000000e+000  5.877855e-001  8.090168e-001
    outer loop
      vertex  1.000000e+001 -4.463074e+001  1.453051e+001
      vertex  0.000000e+000 -4.463074e+001  1.453051e+001
      vertex  0.000000e+000 -4.663074e+001  1.598360e+001
    endloop
  endfacet
  facet normal  -0.000000e+000  5.877855e-001  8.090168e-001
    outer loop
      vertex  1.000000e+001 -4.463074e+001  1.453051e+001
      vertex  0.000000e+000 -4.663074e+001  1.598360e+001
      vertex  1.000000e+001 -4.663074e+001  1.598360e+001
    endloop
  endfacet
  facet normal  0.000000e+000  9.510565e-001  3.090167e-001
    outer loop
      vertex  1.000000e+001 -4.663074e+001  1.598360e+001
      vertex  0.000000e+000 -4.663074e+001  1.598360e+001
      vertex  0.000000e+000 -4.739467e+001  1.833474e+001
    endloop
  endfacet
  facet normal  -0.000000e+000  9.510565e-001  3.090167e-001
    outer loop
      vertex  1.000000e+001 -4.663074e+001  1.598360e+001
      vertex  0.000000e+000 -4.739467e+001  1.833474e+001
      vertex  1.000000e+001 -4.739467e+001  1.833474e+001
    endloop
  endfacet
  facet normal  0.000000e+000 -1.000000e+000  0.000000e+000
    outer loop
      vertex  1.000000e+001 -5.238827e+001  2.533474e+001
      vertex  0.000000e+000 -5.238827e+001  2.533474e+001
      vertex  1.000000e+001 -5.238827e+001  1.033474e+001
    endloop
  endfacet
  facet normal  0.000000e+000 -1.000000e+000  0.000000e+000
    outer loop
      vertex  1.000000e+001 -5.238827e+001  1.033474e+001
      vertex  0.000000e+000 -5.238827e+001  2.533474e+001
      vertex  0.000000e+000 -5.238827e+001  1.033474e+001
    endloop
  endfacet
  facet normal  -0.000000e+000  0.000000e+000  1.000000e+000
    outer loop
      vertex  1.000000e+001  1.126117e+002  2.533474e+001
      vertex  0.000000e+000  1.126117e+002  2.533474e+001
      vertex  1.000000e+001 -5.238827e+001  2.533474e+001
    endloop
  endfacet
  facet normal  0.000000e+000  0.000000e+000  1.000000e+000
    outer loop
      vertex  1.000000e+001 -5.238827e+001  2.533474e+001
      vertex  0.000000e+000  1.126117e+002  2.533474e+001
      vertex  0.000000e+000 -5.238827e+001  2.533474e+001
    endloop
  endfacet
  facet normal  0.000000e+000  1.000000e+000  0.000000e+000
    outer loop
      vertex  1.000000e+001  1.126117e+002  1.033474e+001
      vertex  0.000000e+000  1.126117e+002  1.033474e+001
      vertex  1.000000e+001  1.126117e+002  2.533474e+001
    endloop
  endfacet
  facet normal  0.000000e+000  1.000000e+000  0.000000e+000
    outer loop
      vertex  1.000000e+001  1.126117e+002  2.533474e+001
      vertex  0.000000e+000  1.126117e+002  1.033474e+001
      vertex  0.000000e+000  1.126117e+002  2.533474e+001
    endloop
  endfacet
  facet normal  0.000000e+000  0.000000e+000 -1.000000e+000
    outer loop
      vertex  1.000000e+001 -5.238827e+001  1.033474e+001
      vertex  0.000000e+000 -5.238827e+001  1.033474e+001
      vertex  1.000000e+001  1.126117e+002  1.033474e+001
    endloop
  endfacet
  facet normal  -0.000000e+000  0.000000e+000 -1.000000e+000
    outer loop
      vertex  1.000000e+001  1.126117e+002  1.033474e+001
      vertex  0.000000e+000 -5.238827e+001  1.033474e+001
      vertex  0.000000e+000  1.126117e+002  1.033474e+001
    endloop
  endfacet
endsolid CATIA STL
